<svg xmlns="http://www.w3.org/2000/svg" x="0px" y="0px"
width="48" height="48"
viewBox="0 0 172 172"
style=" fill:#000000;"><defs><linearGradient x1="155.71017" y1="123.46017" x2="94.49967" y2="62.24967" gradientUnits="userSpaceOnUse" id="color-1_NCPZ7hqe16dx_gr1"><stop offset="0.365" stop-color="#199ae0"></stop><stop offset="0.699" stop-color="#1898de"></stop><stop offset="0.819" stop-color="#1691d8"></stop><stop offset="0.905" stop-color="#1186cc"></stop><stop offset="0.974" stop-color="#0a75bc"></stop><stop offset="1" stop-color="#076cb3"></stop></linearGradient><linearGradient x1="97.75692" y1="41.99308" x2="18.93792" y2="120.81208" gradientUnits="userSpaceOnUse" id="color-2_NCPZ7hqe16dx_gr2"><stop offset="0" stop-color="#32bdef"></stop><stop offset="1" stop-color="#1ea2e4"></stop></linearGradient></defs><g fill="none" fill-rule="nonzero" stroke="none" stroke-width="1" stroke-linecap="butt" stroke-linejoin="miter" stroke-miterlimit="10" stroke-dasharray="" stroke-dashoffset="0" font-family="none" font-weight="none" font-size="none" text-anchor="none" style="mix-blend-mode: normal"><path d="M0,172v-172h172v172z" fill="none"></path><g><path d="M91.02025,34.32833l68.15142,68.15142c2.7735,2.7735 2.7735,7.267 0,10.0405l-14.40142,14.40142c-2.7735,2.7735 -7.267,2.7735 -10.0405,0l-68.15142,-68.15142c-2.7735,-2.7735 -2.7735,-7.267 0,-10.0405l14.40142,-14.40142c2.7735,-2.76992 7.267,-2.76992 10.0405,0z" fill="url(#color-1_NCPZ7hqe16dx_gr1)"></path><path d="M105.42167,58.77025l-68.15142,68.15142c-2.7735,2.7735 -7.267,2.7735 -10.0405,0l-14.40142,-14.40142c-2.7735,-2.7735 -2.7735,-7.267 0,-10.0405l68.15142,-68.15142c2.7735,-2.7735 7.267,-2.7735 10.0405,0l14.40142,14.40142c2.76992,2.7735 2.76992,7.267 0,10.0405z" fill="url(#color-2_NCPZ7hqe16dx_gr2)"></path></g></g></svg>