<?xml version="1.0" encoding="utf-8"?><svg xmlns="http://www.w3.org/2000/svg" xmlns:xlink="http://www.w3.org/1999/xlink" width="1366" height="657" preserveAspectRatio="xMidYMid" viewBox="0 0 1366 657" style="z-index:1;margin-right:-2px;display:block;background-repeat-y:initial;background-repeat-x:initial;background-color:rgb(241, 242, 243);animation-play-state:paused" ><g transform="" style="animation-play-state:paused" ><linearGradient id="lg-0.6054181532951524" x1="0" x2="1" y1="0" y2="0" style="animation-play-state:paused" ><stop stop-color="#ffb6bb" offset="0" style="animation-play-state:paused" ></stop>

  
<stop stop-color="#ffe691" offset="1" style="animation-play-state:paused" ></stop></linearGradient>
<path d="M 0 0 L 0 599.336 Q 136.6 601.79 273.2 575.622 T 546.4 511.505 T 819.6 393.522 T 1092.8 331.271 T 1366 306.379 L 1366 0 Z" fill="url(#lg-0.6054181532951524)" opacity="0.4" style="opacity:0.4;animation-play-state:paused" ></path>
<path d="M 0 0 L 0 573.267 Q 136.6 540.47 273.2 509.513 T 546.4 458.772 T 819.6 368.747 T 1092.8 325.565 T 1366 299.504 L 1366 0 Z" fill="url(#lg-0.6054181532951524)" opacity="0.4" style="opacity:0.4;animation-play-state:paused" ></path>
<path d="M 0 0 L 0 624.138 Q 136.6 615.567 273.2 574.893 T 546.4 490.644 T 819.6 417.646 T 1092.8 342.535 T 1366 286.62 L 1366 0 Z" fill="url(#lg-0.6054181532951524)" opacity="0.4" style="opacity:0.4;animation-play-state:paused" ></path>
<path d="M 0 0 L 0 562.218 Q 136.6 553.905 273.2 526.217 T 546.4 512.685 T 819.6 401.155 T 1092.8 355.258 T 1366 238.42 L 1366 0 Z" fill="url(#lg-0.6054181532951524)" opacity="0.4" style="opacity:0.4;animation-play-state:paused" ></path>
<path d="M 0 0 L 0 578.899 Q 136.6 539.223 273.2 517.551 T 546.4 461.407 T 819.6 433.458 T 1092.8 347.217 T 1366 293.649 L 1366 0 Z" fill="url(#lg-0.6054181532951524)" opacity="0.4" style="opacity:0.4;animation-play-state:paused" ></path></g></svg>