<?xml version="1.0" encoding="utf-8"?><svg xmlns="http://www.w3.org/2000/svg" xmlns:xlink="http://www.w3.org/1999/xlink" width="1366" height="657" preserveAspectRatio="xMidYMid" viewBox="0 0 1366 657" style="z-index:1;margin-right:-2px;display:block;background-repeat-y:initial;background-repeat-x:initial;background-color:rgb(221, 221, 221);animation-play-state:paused" ><g transform="" style="animation-play-state:paused" ><linearGradient id="lg-0.4915019307310937" x1="0" x2="1" y1="0" y2="0" style="animation-play-state:paused" ><stop stop-color="#f1f1f1" offset="0" style="animation-play-state:paused" ></stop>

  
<stop stop-color="#0647a6" offset="1" style="animation-play-state:paused" ></stop></linearGradient>
<path d="M 0 0 L 0 571.654 Q 136.6 546.079 273.2 525.558 T 546.4 439.48 T 819.6 361.749 T 1092.8 367.055 T 1366 286.519 L 1366 0 Z" fill="url(#lg-0.4915019307310937)" opacity="0.4" style="opacity:0.4;animation-play-state:paused" ></path>
<path d="M 0 0 L 0 573.864 Q 136.6 538.039 273.2 514.588 T 546.4 479.783 T 819.6 424.116 T 1092.8 314.756 T 1366 292.507 L 1366 0 Z" fill="url(#lg-0.4915019307310937)" opacity="0.4" style="opacity:0.4;animation-play-state:paused" ></path>
<path d="M 0 0 L 0 593.623 Q 136.6 595.378 273.2 570.428 T 546.4 497.434 T 819.6 372.637 T 1092.8 337.191 T 1366 286.015 L 1366 0 Z" fill="url(#lg-0.4915019307310937)" opacity="0.4" style="opacity:0.4;animation-play-state:paused" ></path>
<path d="M 0 0 L 0 582.762 Q 136.6 568.969 273.2 531.79 T 546.4 464.568 T 819.6 445.113 T 1092.8 327.901 T 1366 341.573 L 1366 0 Z" fill="url(#lg-0.4915019307310937)" opacity="0.4" style="opacity:0.4;animation-play-state:paused" ></path>
<path d="M 0 0 L 0 602.041 Q 136.6 548.028 273.2 513.441 T 546.4 493.577 T 819.6 387.733 T 1092.8 354.622 T 1366 289.685 L 1366 0 Z" fill="url(#lg-0.4915019307310937)" opacity="0.4" style="opacity:0.4;animation-play-state:paused" ></path></g></svg>