<svg xmlns="http://www.w3.org/2000/svg" x="0px" y="0px"
width="40" height="40"
viewBox="0 0 172 172"
style=" fill:#000000;"><g fill="none" fill-rule="nonzero" stroke="none" stroke-width="1" stroke-linecap="butt" stroke-linejoin="miter" stroke-miterlimit="10" stroke-dasharray="" stroke-dashoffset="0" font-family="none" font-weight="none" font-size="none" text-anchor="none" style="mix-blend-mode: normal"><path d="M0,172v-172h172v172z" fill="none"></path><g><path d="M15.05,165.55v-108.4202l70.9414,-41.7358l70.9586,41.7358v108.4202z" fill="#fe4066"></path><path d="M85.9914,17.888l68.8086,40.4716v105.0404h-137.6v-105.0404l68.7914,-40.4716M85.9914,12.9l-73.0914,43v111.8h146.2v-111.8l-73.1086,-43z" fill="#fe4066"></path><path d="M86,55.9c-26.12307,0 -47.3,21.17693 -47.3,47.3c0,26.12307 21.17693,47.3 47.3,47.3c26.12307,0 47.3,-21.17693 47.3,-47.3c0,-26.12307 -21.17693,-47.3 -47.3,-47.3z" fill="#ffffff"></path><path d="M85.9914,19.9735l-79.5414,48.633v-13.1537l79.5414,-48.633l79.5586,48.633v13.1537z" fill="#fe4066"></path><path d="M85.9914,9.3396l77.4086,47.3172v8.1141l-75.1683,-45.9455l-2.2446,-1.3717l-2.2446,1.3717l-75.1425,45.9455v-8.1141l77.3914,-47.3172M85.9914,4.3l-81.6914,49.9445v18.1933l81.6914,-49.9445l81.7086,49.9445v-18.1933l-81.7086,-49.9445z" fill="#fe4066"></path><g fill="#fe4066"><path d="M79.55,135.45v-25.8h-25.8v-12.9h25.8v-25.8h12.9v25.8h25.8v12.9h-25.8v25.8z"></path><path d="M90.3,73.1v21.5v4.3h4.3h21.5v8.6h-21.5h-4.3v4.3v21.5h-8.6v-21.5v-4.3h-4.3h-21.5v-8.6h21.5h4.3v-4.3v-21.5h8.6M94.6,68.8h-17.2v25.8h-25.8v17.2h25.8v25.8h17.2v-25.8h25.8v-17.2h-25.8v-25.8z"></path></g></g></g></svg>