<svg xmlns="http://www.w3.org/2000/svg" x="0px" y="0px"
width="30" height="30"
viewBox="0 0 172 172"
style=" fill:#000000;"><g fill="none" fill-rule="nonzero" stroke="none" stroke-width="none" stroke-linecap="butt" stroke-linejoin="miter" stroke-miterlimit="10" stroke-dasharray="" stroke-dashoffset="0" font-family="none" font-weight="none" font-size="none" text-anchor="none" style="mix-blend-mode: normal"><path d="M0,172v-172h172v172z" fill="none" stroke="none" stroke-width="1"></path><g><path d="M10.75,161.25v-150.5h150.5v139.75c0,5.9254 -4.8203,10.75 -10.75,10.75z" fill="#ffffff" stroke="none" stroke-width="1"></path><path d="M159.1,12.9v137.6c0,4.7429 -3.8571,8.6 -8.6,8.6h-137.6v-146.2h146.2M163.4,8.6h-154.8v154.8h141.9c7.1251,0 12.9,-5.7749 12.9,-12.9v-141.9z" fill="#788b9c" stroke="none" stroke-width="1"></path><path d="M10.75,10.75h150.5v21.5h-150.5z" fill="#f78f8f" stroke="none" stroke-width="1"></path><path d="M159.1,12.9v17.2h-146.2v-17.2h146.2M163.4,8.6h-154.8v25.8h154.8v-25.8z" fill="#c74343" stroke="none" stroke-width="1"></path><path d="M55.9,60.2h8.6v8.6h-8.6zM90.3,60.2h8.6v8.6h-8.6zM107.5,60.2h8.6v8.6h-8.6zM124.7,60.2h8.6v8.6h-8.6zM38.7,77.4h8.6v8.6h-8.6zM55.9,77.4h8.6v8.6h-8.6zM90.3,77.4h8.6v8.6h-8.6zM107.5,77.4h8.6v8.6h-8.6zM124.7,77.4h8.6v8.6h-8.6zM38.7,111.8h8.6v8.6h-8.6zM55.9,111.8h8.6v8.6h-8.6zM90.3,111.8h8.6v8.6h-8.6zM73.1,60.2h8.6v8.6h-8.6zM73.1,77.4h8.6v8.6h-8.6zM38.7,94.6h8.6v8.6h-8.6zM55.9,94.6h8.6v8.6h-8.6zM90.3,94.6h8.6v8.6h-8.6zM107.5,94.6h8.6v8.6h-8.6zM124.7,94.6h8.6v8.6h-8.6zM73.1,94.6h8.6v8.6h-8.6zM73.1,111.8h8.6v8.6h-8.6zM107.5,111.8h8.6v8.6h-8.6z" fill="#c5d4de" stroke="none" stroke-width="1"></path><path d="M12.9,146.2h146.2v12.9h-146.2z" fill="#e1ebf2" stroke="none" stroke-width="1"></path><g stroke="none" stroke-width="1"><path d="M133.3,169.85c-20.1541,0 -36.55,-16.3959 -36.55,-36.55c0,-20.1541 16.3959,-36.55 36.55,-36.55c20.1541,0 36.55,16.3959 36.55,36.55c0,20.1541 -16.3959,36.55 -36.55,36.55z" fill="#f78f8f"></path><path d="M133.3,98.9c18.9673,0 34.4,15.4327 34.4,34.4c0,18.9673 -15.4327,34.4 -34.4,34.4c-18.9673,0 -34.4,-15.4327 -34.4,-34.4c0,-18.9673 15.4327,-34.4 34.4,-34.4M133.3,94.6c-21.3753,0 -38.7,17.3247 -38.7,38.7c0,21.3753 17.3247,38.7 38.7,38.7c21.3753,0 38.7,-17.3247 38.7,-38.7c0,-21.3753 -17.3247,-38.7 -38.7,-38.7z" fill="#c74343"></path></g><path d="M111.8,133.3h43" fill="none" stroke="#ffffff" stroke-width="8.6"></path></g></g></svg>