<svg xmlns="http://www.w3.org/2000/svg" x="0px" y="0px"
width="64" height="64"
viewBox="0 0 172 172"
style=" fill:#000000;"><g fill="none" fill-rule="nonzero" stroke="none" stroke-width="1" stroke-linecap="butt" stroke-linejoin="miter" stroke-miterlimit="10" stroke-dasharray="" stroke-dashoffset="0" font-family="none" font-weight="none" font-size="none" text-anchor="none" style="mix-blend-mode: normal"><path d="M0,172v-172h172v172z" fill="none"></path><path d="M86,172c-47.49649,0 -86,-38.50351 -86,-86v0c0,-47.49649 38.50351,-86 86,-86v0c47.49649,0 86,38.50351 86,86v0c0,47.49649 -38.50351,86 -86,86z" fill="#ecf0f1"></path><g fill="#666666"><path d="M73.49339,32.69727c-10.4537,0 -20.90697,3.97682 -28.86146,11.93131c-15.90897,15.90897 -15.90897,41.81395 0,57.72291c7.95448,7.95448 18.38173,11.9334 28.91604,11.9334c10.53432,0 20.96156,-3.97892 28.91604,-11.9334c15.80147,-15.90897 15.7998,-41.81395 -0.10917,-57.72291c-7.95448,-7.95448 -18.40776,-11.93131 -28.86146,-11.93131zM73.4409,39.03978c8.81443,0 17.62844,3.3306 24.293,10.10267c13.43663,13.43663 13.43621,35.25855 0.10707,48.69518c-13.43663,13.43663 -35.25855,13.43663 -48.69518,0c-13.43663,-13.43663 -13.43663,-35.25855 0,-48.69518c6.66457,-6.66457 15.48067,-10.10267 24.2951,-10.10267zM73.4409,45.48936c-7.41702,0 -14.4049,2.90147 -19.67206,8.27612c-5.05217,5.05217 -7.84657,11.60967 -8.16905,18.70421c-0.10749,1.82738 1.29034,3.22437 3.11772,3.33186h0.10707c1.71989,0 3.1173,-1.39783 3.22479,-3.11772c0.21499,-5.48214 2.47108,-10.53474 6.23334,-14.40448c4.08473,-4.08473 9.46107,-6.34041 15.1582,-6.34041c1.82738,0 3.22479,-1.39741 3.22479,-3.22479c0,-1.82738 -1.39741,-3.22479 -3.22479,-3.22479zM54.84377,86.01339c-1.781,0 -3.22479,1.44379 -3.22479,3.22479c0,1.781 1.44379,3.22479 3.22479,3.22479c1.781,0 3.22479,-1.44379 3.22479,-3.22479c0,-1.781 -1.44379,-3.22479 -3.22479,-3.22479zM106.83092,103.74974c-0.81963,0 -1.62583,0.3229 -2.21704,0.96786c-1.28992,1.28992 -1.28992,3.33144 0,4.51387l2.68733,2.68733c-0.64496,1.28992 -0.96786,2.68775 -0.96786,4.19265c0,2.57983 0.96702,5.05259 2.7944,6.87997l13.75995,13.5437c1.93487,1.93487 4.40554,2.90147 6.87788,2.90147c2.47234,0 4.9451,-0.96702 6.87997,-2.7944c3.76226,-3.76226 3.76226,-9.88852 0,-13.65077l-13.75785,-13.75995c-1.82738,-1.82738 -4.30014,-2.7944 -6.87997,-2.7944c-1.5049,0 -2.90273,0.3229 -4.19265,0.96786l-2.68733,-2.68733c-0.64496,-0.64496 -1.47719,-0.96786 -2.29682,-0.96786zM116.00772,112.77957c0.85994,0 1.71947,0.3229 2.25693,0.96786l13.65078,13.65077c1.28992,1.28992 1.28992,3.33145 0,4.51387c-1.28992,1.28992 -3.33145,1.28992 -4.51387,0l-13.65077,-13.5437c-0.64496,-0.64496 -0.96786,-1.50406 -0.96786,-2.36401c0,-0.85994 0.3229,-1.71947 0.96786,-2.25693c0.64496,-0.64496 1.39699,-0.96786 2.25693,-0.96786z"></path></g><path d="M86,172c-47.49649,0 -86,-38.50351 -86,-86v0c0,-47.49649 38.50351,-86 86,-86v0c47.49649,0 86,38.50351 86,86v0c0,47.49649 -38.50351,86 -86,86z" fill="none"></path><path d="M86,168.56c-45.59663,0 -82.56,-36.96337 -82.56,-82.56v0c0,-45.59663 36.96337,-82.56 82.56,-82.56v0c45.59663,0 82.56,36.96337 82.56,82.56v0c0,45.59663 -36.96337,82.56 -82.56,82.56z" fill="none"></path></g></svg>