<svg xmlns="http://www.w3.org/2000/svg" x="0px" y="0px"
width="64" height="64"
viewBox="0 0 172 172"
style=" fill:#000000;"><g fill="none" fill-rule="nonzero" stroke="none" stroke-width="1" stroke-linecap="butt" stroke-linejoin="miter" stroke-miterlimit="10" stroke-dasharray="" stroke-dashoffset="0" font-family="none" font-weight="none" font-size="none" text-anchor="none" style="mix-blend-mode: normal"><path d="M0,172v-172h172v172z" fill="none"></path><g fill="#666666"><path d="M119.59375,2.6875c-20.425,0 -36.95312,16.52865 -37.625,37.49115c-0.5375,19.48438 18.14167,45.14947 29.2948,58.58697c2.15,2.55313 5.1052,3.8974 8.3302,3.8974c3.225,0 6.1802,-1.47865 8.3302,-3.8974c11.15313,-13.57188 29.96667,-39.1026 29.2948,-58.58697c-0.67187,-20.9625 -17.2,-37.49115 -37.625,-37.49115zM70.85657,10.23822c-0.2782,0.00682 -0.56217,0.04042 -0.84772,0.10761c-24.1875,5.24063 -44.07447,20.96355 -54.55572,43.40417c-8.73437,18.8125 -9.67552,40.0448 -2.55365,59.52917c7.12187,19.48438 21.36562,35.2052 40.3125,43.93958c10.48125,4.8375 21.63438,7.39063 32.92188,7.39063c9.00313,0 18.00678,-1.6125 26.74115,-4.70312c19.61875,-7.12187 35.2052,-21.36562 43.93958,-40.3125c3.7625,-8.0625 6.04845,-16.52917 6.98907,-25.26355c0.26875,-2.15 -1.34532,-4.16405 -3.6297,-4.4328c-2.15,-0.26875 -4.16405,1.3427 -4.4328,3.62707c-0.80625,7.79375 -2.82135,15.45365 -6.18073,22.7099c-7.92812,16.93125 -21.90417,29.6974 -39.37292,36.1474c-17.46875,6.31563 -36.54895,5.5078 -53.34583,-2.28595c-2.55312,-1.20937 -4.97188,-2.55312 -7.39062,-4.03125c2.28438,-0.13438 4.7026,-0.80625 6.8526,-2.01562c2.41875,-1.34375 4.9703,-2.95573 7.79218,-4.83698c1.88125,-1.34375 3.49375,-3.08905 4.70313,-5.10468c1.34375,-2.41875 2.9573,-4.9724 3.76355,-7.92865c5.24062,-20.15625 -12.22812,-20.96303 -12.76562,-25.3974c-0.5375,-4.97187 5.91355,-8.7349 9.81042,-12.63178c3.89687,-3.89687 5.10468,-9.94375 3.08905,-13.4375c-6.45,-11.55625 -21.76718,-5.5099 -23.2453,6.8526c-0.80625,7.39063 -5.2422,14.91562 -9.0047,18.8125c-3.7625,3.7625 -11.15155,1.74845 -13.16718,-3.76093c-2.28437,-6.18125 5.64218,-8.4672 4.4328,-16.39532c-0.26875,-2.15 -2.55313,-3.22395 -5.375,-3.62708l-9.2724,0.2677c0.94063,-6.71875 2.95677,-13.30313 5.91302,-19.48437c9.1375,-20.29062 27.01043,-34.39948 48.77918,-39.1026c2.15,-0.40312 3.62655,-2.5526 3.08905,-4.83697c-0.35273,-1.88125 -2.04187,-3.24705 -3.98926,-3.19928zM119.59375,26.875c7.39063,0 13.4375,6.04688 13.4375,13.4375c0,7.39063 -6.04687,13.4375 -13.4375,13.4375c-7.39062,0 -13.4375,-6.04687 -13.4375,-13.4375c0,-7.39062 6.04688,-13.4375 13.4375,-13.4375z"></path></g></g></svg>