<svg xmlns="http://www.w3.org/2000/svg" x="0px" y="0px"
width="64" height="64"
viewBox="0 0 172 172"
style=" fill:#000000;"><g fill="none" fill-rule="nonzero" stroke="none" stroke-width="1" stroke-linecap="butt" stroke-linejoin="miter" stroke-miterlimit="10" stroke-dasharray="" stroke-dashoffset="0" font-family="none" font-weight="none" font-size="none" text-anchor="none" style="mix-blend-mode: normal"><path d="M0,172v-172h172v172z" fill="none"></path><g><path d="M142.03438,128.86563l-27.27813,9.27188v0c0.80625,-1.34375 1.34375,-2.82188 1.20938,-4.56875c-0.26875,-3.7625 -3.62813,-6.58437 -7.525,-6.58437h-19.48438c-7.525,-10.88437 -28.08437,-10.88437 -28.08437,-10.88437h-16.39375v32.7875l38.7,12.09375c0,0 11.69062,3.35938 20.02188,0c7.12187,-2.82188 35.74375,-17.87187 44.74687,-22.70938c1.74687,-0.94062 4.16563,-3.62812 2.82188,-6.71875v0c-1.20938,-2.41875 -3.225,-4.16562 -8.73437,-2.6875z" fill="#f0d6bf"></path><path d="M108.70938,145.39375h-28.35313c-2.28438,0 -4.03125,-1.74688 -4.03125,-4.03125c0,-2.28438 1.74687,-4.03125 4.03125,-4.03125h28.4875c1.74688,0 3.225,-1.34375 3.225,-3.09063c0,-2.28437 1.74687,-4.03125 4.03125,-4.03125c2.28437,0 4.03125,1.74688 4.03125,4.03125c-0.13438,6.18125 -5.10625,11.15313 -11.42187,11.15313z" fill="#454b54"></path><path d="M94.19688,166.625c-6.45,0 -11.825,-1.6125 -12.22813,-1.6125l-38.7,-12.09375c-1.74687,-0.5375 -2.82187,-2.15 -2.82187,-3.89687v-32.65313c0,-2.28437 1.74688,-4.03125 4.03125,-4.03125h16.39375c0.94063,0 20.69375,0.13437 29.96563,10.88437h17.60312c5.9125,0 11.01875,4.43438 11.55625,10.2125c0.26875,2.41875 -0.40313,4.8375 -1.74688,6.9875c-0.94062,1.47813 -2.6875,2.28438 -4.43437,1.88125v0c-1.20938,-0.26875 -2.28438,-1.20938 -2.82187,-2.41875c-0.5375,-1.20937 -0.26875,-2.55313 0.40312,-3.7625c0.26875,-0.40312 0.5375,-1.075 0.5375,-2.01562c-0.13437,-1.6125 -1.74687,-2.82187 -3.49375,-2.82187h-19.48437c-1.34375,0 -2.55312,-0.67187 -3.35937,-1.74688c-5.24062,-7.525 -19.61875,-9.1375 -24.725,-9.1375h-12.3625v25.8l35.87813,11.15312c0,0 10.34687,2.95625 17.33438,0.13438c5.50937,-2.28438 26.47187,-13.16875 44.34375,-22.575c0.13438,-0.13437 1.20938,-0.94062 0.94063,-1.47812c-0.26875,-0.67187 -0.5375,-1.34375 -3.7625,-0.5375l-15.5875,5.10625c-2.15,0.67188 -4.43438,-0.40313 -5.10625,-2.55313c-0.67187,-2.15 0.40313,-4.43437 2.55313,-5.10625l15.5875,-5.24063h0.13437c8.86875,-2.41875 12.22813,2.15 13.4375,5.10625c2.15,4.97188 -0.80625,9.80937 -4.70312,11.825c-11.15312,5.9125 -38.02812,20.02188 -45.01562,22.84375c-3.225,1.34375 -6.9875,1.74688 -10.34688,1.74688z" fill="#454b54"></path><path d="M40.44688,154.39688c2.28438,0 4.03125,-1.74687 4.03125,-4.03125v-35.07187c0,-2.28438 -1.88125,-4.16563 -4.3,-4.16563h-19.21563c-0.5375,0 0,43.26875 0,43.26875z" fill="#ffffff"></path><path d="M40.44688,158.42813h-19.48437c-2.28437,0 -4.03125,-1.74687 -4.03125,-4.03125c0,-2.28437 1.74688,-4.03125 4.03125,-4.03125h19.48438v-35.07187c0,-0.13438 -0.13437,-0.13438 -0.26875,-0.13438h-19.21563c-2.28437,0 -4.03125,-1.74687 -4.03125,-4.03125c0,-2.28437 1.74688,-4.03125 4.03125,-4.03125h19.21563c4.56875,0 8.33125,3.62813 8.33125,8.19688v35.07187c0,4.43438 -3.62812,8.0625 -8.0625,8.0625z" fill="#454b54"></path><path d="M72.5625,65.575l31.04062,-31.175c6.04688,-6.04687 16.125,-5.9125 22.30625,0.26875l0.13437,0.13438c6.31562,6.31562 6.45,16.25937 0.26875,22.30625l-31.04062,31.30938c-6.04687,6.04688 -16.125,5.9125 -22.30625,-0.26875l-0.13438,-0.13437c-6.18125,-6.31562 -6.45,-16.39375 -0.26875,-22.44062" fill="#ffffff"></path><path d="M95.40625,88.28438l15.45313,-15.45312l-22.70938,-22.84375l-15.5875,15.5875c-6.04687,6.18125 -5.9125,16.125 0.26875,22.44062c6.31562,6.31562 16.39375,6.45 22.575,0.26875" fill="#98bed8"></path><path d="M109.1125,36.14688c-1.075,0 -2.01562,0.40312 -2.82187,1.20937l-15.31875,15.45313l5.64375,5.64375l15.31875,-15.45312c1.6125,-1.47812 1.6125,-4.03125 0,-5.64375c-0.67187,-0.80625 -1.74688,-1.20938 -2.82188,-1.20938" fill="#ffffff"></path><path d="M90.97188,52.80938l-15.5875,15.5875c-1.6125,1.47813 -1.6125,4.03125 0,5.64375c0.80625,0.80625 1.74687,1.20937 2.82187,1.20937c1.075,0 2.15,-0.40313 2.82188,-1.20937l15.5875,-15.5875l-5.64375,-5.64375" fill="#eaf2f7"></path><path d="M84.3875,96.88438c-5.375,0 -10.48125,-2.15 -14.37813,-5.9125l-0.13437,-0.13437c-7.79375,-7.79375 -7.92813,-20.425 -0.26875,-28.08437l31.175,-31.175c3.62812,-3.62813 8.46563,-5.64375 13.70625,-5.64375c5.375,0 10.48125,2.15 14.37812,5.9125l0.13438,0.13438c7.79375,7.79375 7.92812,20.425 0.26875,28.08438l-31.175,31.175c-3.62812,3.62812 -8.46563,5.64375 -13.70625,5.64375zM114.4875,33.99688c-3.09062,0 -5.9125,1.20937 -8.0625,3.225l-31.04062,31.175c-4.43438,4.56875 -4.3,11.95938 0.26875,16.6625l0.13438,0.13437c2.28437,2.28437 5.375,3.62812 8.6,3.62812c3.09063,0 5.9125,-1.20938 8.0625,-3.225l31.04062,-31.175c4.43437,-4.56875 4.3,-11.95938 -0.26875,-16.6625l-0.13438,-0.13437c-2.28437,-2.28437 -5.375,-3.62812 -8.6,-3.62812z" fill="#454b54"></path></g></g></svg>