<svg xmlns="http://www.w3.org/2000/svg" x="0px" y="0px"
width="100" height="100"
viewBox="0 0 172 172"
style=" fill:#000000;"><g fill="none" fill-rule="nonzero" stroke="none" stroke-width="1" stroke-linecap="butt" stroke-linejoin="miter" stroke-miterlimit="10" stroke-dasharray="" stroke-dashoffset="0" font-family="none" font-weight="none" font-size="none" text-anchor="none" style="mix-blend-mode: normal"><path d="M0,172v-172h172v172z" fill="none"></path><g><path d="M13.4375,72.5625h139.75v91.375h-139.75z" fill="#faefde"></path><path d="M13.4375,120.9375h137.0625v43h-137.0625z" fill="#efd8be"></path><path d="M153.1875,61.8125h-139.75l10.75,-16.125h118.25z" fill="#ed7899"></path><rect x="3" y="23" transform="scale(2.6875,2.6875)" width="56" height="4" rx="2" ry="2" fill="#f9dd8f"></rect><path d="M56.4375,24.1875h53.75v53.75h-53.75z" fill="#faefde"></path><path d="M99.4375,45.6875h-10.75v-10.75h-10.75v10.75h-10.75v10.75h10.75v10.75h10.75v-10.75h10.75z" fill="#ed7899"></path><path d="M67.1875,131.6875h32.25v32.25h-32.25z" fill="#bbdef9"></path><path d="M34.9375,91.375h-5.375c-1.48427,0 -2.6875,1.20323 -2.6875,2.6875c0,1.48427 1.20323,2.6875 2.6875,2.6875h5.375c1.48427,0 2.6875,-1.20323 2.6875,-2.6875c0,-1.48427 -1.20323,-2.6875 -2.6875,-2.6875zM51.0625,91.375h-5.375c-1.48427,0 -2.6875,1.20323 -2.6875,2.6875c0,1.48427 1.20323,2.6875 2.6875,2.6875h5.375c1.48427,0 2.6875,-1.20323 2.6875,-2.6875c0,-1.48427 -1.20323,-2.6875 -2.6875,-2.6875zM77.9375,91.375h-5.375c-1.48427,0 -2.6875,1.20323 -2.6875,2.6875c0,1.48427 1.20323,2.6875 2.6875,2.6875h5.375c1.48427,0 2.6875,-1.20323 2.6875,-2.6875c0,-1.48427 -1.20323,-2.6875 -2.6875,-2.6875zM94.0625,91.375h-5.375c-1.48427,0 -2.6875,1.20323 -2.6875,2.6875c0,1.48427 1.20323,2.6875 2.6875,2.6875h5.375c1.48427,0 2.6875,-1.20323 2.6875,-2.6875c0,-1.48427 -1.20323,-2.6875 -2.6875,-2.6875zM34.9375,102.125h-5.375c-1.48427,0 -2.6875,1.20323 -2.6875,2.6875c0,1.48427 1.20323,2.6875 2.6875,2.6875h5.375c1.48427,0 2.6875,-1.20323 2.6875,-2.6875c0,-1.48427 -1.20323,-2.6875 -2.6875,-2.6875zM51.0625,102.125h-5.375c-1.48427,0 -2.6875,1.20323 -2.6875,2.6875c0,1.48427 1.20323,2.6875 2.6875,2.6875h5.375c1.48427,0 2.6875,-1.20323 2.6875,-2.6875c0,-1.48427 -1.20323,-2.6875 -2.6875,-2.6875zM77.9375,102.125h-5.375c-1.48427,0 -2.6875,1.20323 -2.6875,2.6875c0,1.48427 1.20323,2.6875 2.6875,2.6875h5.375c1.48427,0 2.6875,-1.20323 2.6875,-2.6875c0,-1.48427 -1.20323,-2.6875 -2.6875,-2.6875zM94.0625,102.125h-5.375c-1.48427,0 -2.6875,1.20323 -2.6875,2.6875c0,1.48427 1.20323,2.6875 2.6875,2.6875h5.375c1.48427,0 2.6875,-1.20323 2.6875,-2.6875c0,-1.48427 -1.20323,-2.6875 -2.6875,-2.6875zM34.9375,145.125h-5.375c-1.48427,0 -2.6875,1.20323 -2.6875,2.6875c0,1.48427 1.20323,2.6875 2.6875,2.6875h5.375c1.48427,0 2.6875,-1.20323 2.6875,-2.6875c0,-1.48427 -1.20323,-2.6875 -2.6875,-2.6875zM34.9375,134.375h-5.375c-1.48427,0 -2.6875,1.20323 -2.6875,2.6875c0,1.48427 1.20323,2.6875 2.6875,2.6875h5.375c1.48427,0 2.6875,-1.20323 2.6875,-2.6875c0,-1.48427 -1.20323,-2.6875 -2.6875,-2.6875zM51.0625,145.125h-5.375c-1.48427,0 -2.6875,1.20323 -2.6875,2.6875c0,1.48427 1.20323,2.6875 2.6875,2.6875h5.375c1.48427,0 2.6875,-1.20323 2.6875,-2.6875c0,-1.48427 -1.20323,-2.6875 -2.6875,-2.6875zM51.0625,134.375h-5.375c-1.48427,0 -2.6875,1.20323 -2.6875,2.6875c0,1.48427 1.20323,2.6875 2.6875,2.6875h5.375c1.48427,0 2.6875,-1.20323 2.6875,-2.6875c0,-1.48427 -1.20323,-2.6875 -2.6875,-2.6875zM120.9375,91.375h-5.375c-1.48427,0 -2.6875,1.20323 -2.6875,2.6875c0,1.48427 1.20323,2.6875 2.6875,2.6875h5.375c1.48427,0 2.6875,-1.20323 2.6875,-2.6875c0,-1.48427 -1.20323,-2.6875 -2.6875,-2.6875zM131.6875,96.75h5.375c1.48427,0 2.6875,-1.20323 2.6875,-2.6875c0,-1.48427 -1.20323,-2.6875 -2.6875,-2.6875h-5.375c-1.48427,0 -2.6875,1.20323 -2.6875,2.6875c0,1.48427 1.20323,2.6875 2.6875,2.6875zM120.9375,102.125h-5.375c-1.48427,0 -2.6875,1.20323 -2.6875,2.6875c0,1.48427 1.20323,2.6875 2.6875,2.6875h5.375c1.48427,0 2.6875,-1.20323 2.6875,-2.6875c0,-1.48427 -1.20323,-2.6875 -2.6875,-2.6875zM131.6875,107.5h5.375c1.48427,0 2.6875,-1.20323 2.6875,-2.6875c0,-1.48427 -1.20323,-2.6875 -2.6875,-2.6875h-5.375c-1.48427,0 -2.6875,1.20323 -2.6875,2.6875c0,1.48427 1.20323,2.6875 2.6875,2.6875zM120.9375,145.125h-5.375c-1.48427,0 -2.6875,1.20323 -2.6875,2.6875c0,1.48427 1.20323,2.6875 2.6875,2.6875h5.375c1.48427,0 2.6875,-1.20323 2.6875,-2.6875c0,-1.48427 -1.20323,-2.6875 -2.6875,-2.6875zM120.9375,134.375h-5.375c-1.48427,0 -2.6875,1.20323 -2.6875,2.6875c0,1.48427 1.20323,2.6875 2.6875,2.6875h5.375c1.48427,0 2.6875,-1.20323 2.6875,-2.6875c0,-1.48427 -1.20323,-2.6875 -2.6875,-2.6875zM137.0625,145.125h-5.375c-1.48427,0 -2.6875,1.20323 -2.6875,2.6875c0,1.48427 1.20323,2.6875 2.6875,2.6875h5.375c1.48427,0 2.6875,-1.20323 2.6875,-2.6875c0,-1.48427 -1.20323,-2.6875 -2.6875,-2.6875zM137.0625,134.375h-5.375c-1.48427,0 -2.6875,1.20323 -2.6875,2.6875c0,1.48427 1.20323,2.6875 2.6875,2.6875h5.375c1.48427,0 2.6875,-1.20323 2.6875,-2.6875c0,-1.48427 -1.20323,-2.6875 -2.6875,-2.6875z" fill="#8d6c9f"></path><path d="M163.9375,161.25h-8.0625v-86.48375c3.39505,-1.23393 5.55499,-4.57545 5.28607,-8.17776c-0.26892,-3.6023 -2.90107,-6.58608 -6.44169,-7.30224l-9.245,-13.89438c-1.00036,-1.49939 -2.68567,-2.39755 -4.48812,-2.39187h-28.11125v-13.4375c0,-4.4528 -3.6097,-8.0625 -8.0625,-8.0625h-43c-4.4528,0 -8.0625,3.6097 -8.0625,8.0625v13.4375h-10.75v-5.21375c0,-1.48427 -1.20323,-2.6875 -2.6875,-2.6875c-1.48427,0 -2.6875,1.20323 -2.6875,2.6875v5.21375h-5.375v-18.65125c0,-1.48427 -1.20323,-2.6875 -2.6875,-2.6875c-1.48427,0 -2.6875,1.20323 -2.6875,2.6875v18.65125h-1.23625c-1.79294,0.00332 -3.46617,0.90041 -4.46125,2.39187l-9.27187,13.89437c-3.54062,0.71616 -6.17277,3.69994 -6.44169,7.30224c-0.26892,3.6023 1.89102,6.94382 5.28607,8.17776v86.48375h-8.0625c-1.48427,0 -2.6875,1.20323 -2.6875,2.6875c0,1.48427 1.20323,2.6875 2.6875,2.6875h161.25c1.48427,0 2.6875,-1.20323 2.6875,-2.6875c0,-1.48427 -1.20323,-2.6875 -2.6875,-2.6875zM153.1875,69.875h-40.3125v-5.375h40.3125c1.48427,0 2.6875,1.20323 2.6875,2.6875c0,1.48427 -1.20323,2.6875 -2.6875,2.6875zM140.98625,48.375l7.17562,10.75h-35.28688v-10.75zM59.125,29.5625c0,-1.48427 1.20323,-2.6875 2.6875,-2.6875h43c1.48427,0 2.6875,1.20323 2.6875,2.6875v43c0,1.48427 -1.20323,2.6875 -2.6875,2.6875h-43c-1.48427,0 -2.6875,-1.20323 -2.6875,-2.6875zM13.4375,69.875c-1.48427,0 -2.6875,-1.20323 -2.6875,-2.6875c0,-1.48427 1.20323,-2.6875 2.6875,-2.6875h40.3125v5.375zM25.63875,48.375h1.23625v2.84875c0,1.48427 1.20323,2.6875 2.6875,2.6875c1.48427,0 2.6875,-1.20323 2.6875,-2.6875v-2.84875h5.375v2.84875c0,1.48427 1.20323,2.6875 2.6875,2.6875c1.48427,0 2.6875,-1.20323 2.6875,-2.6875v-2.84875h10.75v10.75h-35.28687zM96.75,161.25h-10.75v-26.875h10.75zM80.625,161.25h-10.75v-26.875h10.75zM102.125,161.25v-26.875c0,-2.96853 -2.40647,-5.375 -5.375,-5.375h-26.875c-2.96853,0 -5.375,2.40647 -5.375,5.375v26.875h-48.375v-37.625h107.5c1.48427,0 2.6875,-1.20323 2.6875,-2.6875c0,-1.48427 -1.20323,-2.6875 -2.6875,-2.6875h-107.5v-43h38.10875c1.13614,3.21352 4.17031,5.36542 7.57875,5.375h43c3.40844,-0.00958 6.44261,-2.16148 7.57875,-5.375h38.10875v86z" fill="#8d6c9f"></path><path d="M142.4375,118.25h-10.75c-1.48427,0 -2.6875,1.20323 -2.6875,2.6875c0,1.48427 1.20323,2.6875 2.6875,2.6875h10.75c1.48427,0 2.6875,-1.20323 2.6875,-2.6875c0,-1.48427 -1.20323,-2.6875 -2.6875,-2.6875zM69.875,59.125h5.375v5.375c0,2.96853 2.40647,5.375 5.375,5.375h5.375c2.96853,0 5.375,-2.40647 5.375,-5.375v-5.375h5.375c2.96853,0 5.375,-2.40647 5.375,-5.375v-5.375c0,-2.96853 -2.40647,-5.375 -5.375,-5.375h-5.375v-5.375c0,-2.96853 -2.40647,-5.375 -5.375,-5.375h-5.375c-2.96853,0 -5.375,2.40647 -5.375,5.375v5.375h-5.375c-2.96853,0 -5.375,2.40647 -5.375,5.375v5.375c0,2.96853 2.40647,5.375 5.375,5.375zM69.875,48.375h5.375c2.96853,0 5.375,-2.40647 5.375,-5.375v-5.375h5.375v5.375c0,2.96853 2.40647,5.375 5.375,5.375h5.375v5.375h-5.375c-2.96853,0 -5.375,2.40647 -5.375,5.375v5.375h-5.375v-5.375c0,-2.96853 -2.40647,-5.375 -5.375,-5.375h-5.375z" fill="#8d6c9f"></path></g></g></svg>