<svg xmlns="http://www.w3.org/2000/svg" x="0px" y="0px"
width="48" height="48"
viewBox="0 0 172 172"
style=" fill:#000000;"><defs><linearGradient x1="64.5" y1="114.99992" x2="150.5" y2="114.99992" gradientUnits="userSpaceOnUse" id="color-1_bjHuxcHTNosO_gr1"><stop offset="0" stop-color="#3ccbf4"></stop><stop offset="1" stop-color="#1fa0e5"></stop></linearGradient><linearGradient x1="85.6775" y1="65.1665" x2="85.6775" y2="150.5" gradientUnits="userSpaceOnUse" id="color-2_bjHuxcHTNosO_gr2"><stop offset="0" stop-color="#28afea"></stop><stop offset="1" stop-color="#0b88da"></stop></linearGradient></defs><g fill="none" fill-rule="nonzero" stroke="none" stroke-width="1" stroke-linecap="butt" stroke-linejoin="miter" stroke-miterlimit="10" stroke-dasharray="" stroke-dashoffset="0" font-family="none" font-weight="none" font-size="none" text-anchor="none" style="mix-blend-mode: normal"><path d="M0,172v-172h172v172z" fill="none"></path><g><path d="M143.33333,21.5h-114.66667c-3.95958,0 -7.16667,3.20708 -7.16667,7.16667v107.5c0,3.95958 3.20708,7.16667 7.16667,7.16667h114.66667c3.95958,0 7.16667,-3.20708 7.16667,-7.16667v-107.5c0,-3.95958 -3.20708,-7.16667 -7.16667,-7.16667z" fill="#50e6ff"></path><path d="M114.89958,82.64958c-4.11725,-4.11725 -10.76792,-4.20683 -14.99625,-0.20425l-35.40333,33.54v34.51467h78.83333c3.95958,0 7.16667,-3.20708 7.16667,-7.16667v-25.08333z" fill="url(#color-1_bjHuxcHTNosO_gr1)"></path><circle cx="30.5" cy="14.5" transform="scale(3.58333,3.58333)" r="3.5" fill="#fff8de"></circle><path d="M28.66667,150.5h114.66667c2.90608,0 5.40008,-1.73792 6.52167,-4.22833l-77.95542,-77.95542c-4.11725,-4.11725 -10.76792,-4.20683 -14.99625,-0.20425l-35.40333,33.54v41.68133c0,3.95958 3.20708,7.16667 7.16667,7.16667z" fill="url(#color-2_bjHuxcHTNosO_gr2)"></path></g></g></svg>