<svg xmlns="http://www.w3.org/2000/svg" x="0px" y="0px"
width="48" height="48"
viewBox="0 0 172 172"
style=" fill:#000000;"><defs><linearGradient x1="35.47142" y1="35.76167" x2="136.82242" y2="137.11267" gradientUnits="userSpaceOnUse" id="color-1_VQOfeAx5KWTK_gr1"><stop offset="0" stop-color="#33bef0"></stop><stop offset="1" stop-color="#0a85d9"></stop></linearGradient><radialGradient cx="85.99713" cy="55.18907" r="14.2915" gradientUnits="userSpaceOnUse" id="color-2_VQOfeAx5KWTK_gr2"><stop offset="0.516" stop-color="#000000"></stop><stop offset="1" stop-color="#000000" stop-opacity="0"></stop></radialGradient></defs><g fill="none" fill-rule="nonzero" stroke="none" stroke-width="1" stroke-linecap="butt" stroke-linejoin="miter" stroke-miterlimit="10" stroke-dasharray="" stroke-dashoffset="0" font-family="none" font-weight="none" font-size="none" text-anchor="none" style="mix-blend-mode: normal"><path d="M0,172v-172h172v172z" fill="none"></path><g><path d="M157.81358,86.43717c0,39.57792 -32.08875,71.66667 -71.66667,71.66667c-39.57792,0 -71.66667,-32.08875 -71.66667,-71.66667c0,-39.57792 32.08875,-71.66667 71.66667,-71.66667c39.57792,0 71.66667,32.08875 71.66667,71.66667z" fill="url(#color-1_VQOfeAx5KWTK_gr1)"></path><path d="M78.83333,129h14.33333c1.978,0 3.58333,-1.60533 3.58333,-3.58333v-53.75c0,-1.978 -1.60533,-3.58333 -3.58333,-3.58333h-14.33333c-1.978,0 -3.58333,1.60533 -3.58333,3.58333v53.75c0,1.978 1.60533,3.58333 3.58333,3.58333z" fill="#000000" opacity="0.05"></path><path d="M79.64675,127.20833h12.71008c1.43692,0 2.60508,-1.16458 2.60508,-2.60508v-52.12317c0,-1.43692 -1.16458,-2.60508 -2.60508,-2.60508h-12.71008c-1.43692,0 -2.60508,1.16458 -2.60508,2.60508v52.12675c0,1.43692 1.16458,2.6015 2.60508,2.6015z" fill="#000000" opacity="0.07"></path><ellipse cx="24" cy="15.402" transform="scale(3.58333,3.58333)" rx="3.988" ry="3.609" fill="url(#color-2_VQOfeAx5KWTK_gr2)" opacity="0.15"></ellipse><path d="M86,63.53967c6.09167,0 9.49583,-3.827 9.49583,-8.557c0,-4.73 -3.59408,-8.39933 -9.49583,-8.39933c-5.90175,0 -9.49583,3.66933 -9.49583,8.39933c0,4.73 3.40417,8.557 9.49583,8.557z" fill="#ffffff"></path><rect x="22" y="20" transform="scale(3.58333,3.58333)" width="4" height="15" fill="#ffffff"></rect></g></g></svg>