<svg xmlns="http://www.w3.org/2000/svg" x="0px" y="0px"
width="48" height="48"
viewBox="0 0 172 172"
style=" fill:#000000;"><g fill="none" fill-rule="nonzero" stroke="none" stroke-width="1" stroke-linecap="butt" stroke-linejoin="miter" stroke-miterlimit="10" stroke-dasharray="" stroke-dashoffset="0" font-family="none" font-weight="none" font-size="none" text-anchor="none" style="mix-blend-mode: normal"><path d="M0,172v-172h172v172z" fill="none"></path><g><path d="M86,103.91667c-35.62237,0 -64.5,10.42803 -64.5,23.29167c0,12.86363 28.87763,23.29167 64.5,23.29167c35.62237,0 64.5,-10.42803 64.5,-23.29167c0,-12.86363 -28.87763,-23.29167 -64.5,-23.29167z" fill="#dddddd"></path><path d="M86,21.5c-21.76875,0 -39.41667,17.40783 -39.41667,38.87917c0,21.47492 39.41667,72.20417 39.41667,72.20417c0,0 39.41667,-50.72925 39.41667,-72.20417c0,-21.47133 -17.64792,-38.87917 -39.41667,-38.87917zM86,78.83333c-9.89717,0 -17.91667,-8.02308 -17.91667,-17.91667c0,-9.89358 8.02308,-17.91667 17.91667,-17.91667c9.89358,0 17.91667,8.02308 17.91667,17.91667c0,9.89358 -8.0195,17.91667 -17.91667,17.91667z" fill="#aaaaaa"></path></g></g></svg>