<svg xmlns="http://www.w3.org/2000/svg" x="0px" y="0px"
width="48" height="48"
viewBox="0 0 172 172"
style=" fill:#000000;"><defs><linearGradient x1="77.099" y1="63.20283" x2="163.37133" y2="192.32825" gradientUnits="userSpaceOnUse" id="color-1_dBsPW6uRLg1C_gr1"><stop offset="0" stop-color="#28afea"></stop><stop offset="1" stop-color="#0b88da"></stop></linearGradient><linearGradient x1="5.04533" y1="87.46917" x2="130.18608" y2="165.421" gradientUnits="userSpaceOnUse" id="color-2_dBsPW6uRLg1C_gr2"><stop offset="0" stop-color="#28afea"></stop><stop offset="1" stop-color="#0b88da"></stop></linearGradient><radialGradient cx="136.17742" cy="137.28108" r="43.36192" gradientUnits="userSpaceOnUse" id="color-3_dBsPW6uRLg1C_gr3"><stop offset="0.348" stop-color="#000000"></stop><stop offset="0.936" stop-color="#000000" stop-opacity="0.098"></stop><stop offset="1" stop-color="#000000" stop-opacity="0"></stop></radialGradient><linearGradient x1="100.33333" y1="136.16667" x2="172" y2="136.16667" gradientUnits="userSpaceOnUse" id="color-4_dBsPW6uRLg1C_gr4"><stop offset="0" stop-color="#21ad64"></stop><stop offset="1" stop-color="#088242"></stop></linearGradient></defs><g fill="none" fill-rule="nonzero" stroke="none" stroke-width="1" stroke-linecap="butt" stroke-linejoin="miter" stroke-miterlimit="10" stroke-dasharray="" stroke-dashoffset="0" font-family="none" font-weight="none" font-size="none" text-anchor="none" style="mix-blend-mode: normal"><path d="M0,172v-172h172v172z" fill="none"></path><g><path d="M32.25,93.16667l129,-51.27033v94.27033c0,3.95958 -3.20708,7.16667 -7.16667,7.16667h-121.83333z" fill="url(#color-1_dBsPW6uRLg1C_gr1)"></path><path d="M10.75,41.89633v94.27033c0,3.95958 3.20708,7.16667 7.16667,7.16667h136.16667c1.75942,0 3.35042,-0.65933 4.59742,-1.71283z" fill="url(#color-2_dBsPW6uRLg1C_gr2)"></path><path d="M10.75,39.41667h150.5v6.063l-62.06333,48.19583c-7.75792,6.02358 -18.61542,6.02358 -26.37333,0l-62.06333,-48.19583z" fill="#000000" opacity="0.05"></path><path d="M10.75,37.625h150.5v6.063l-64.62183,46.98467c-6.31383,4.67267 -14.9425,4.67267 -21.25633,0l-64.62183,-46.98467z" fill="#000000" opacity="0.07"></path><path d="M17.91667,28.66667h136.16667c3.95958,0 7.16667,3.20708 7.16667,7.16667v6.063l-67.18033,45.7735c-4.86975,3.31817 -11.27317,3.31817 -16.13933,0l-67.18033,-45.7735v-6.063c0,-3.95958 3.20708,-7.16667 7.16667,-7.16667z" fill="#50e6ff"></path><path d="M161.25,102.55142c-7.00542,-5.23525 -15.66633,-8.37425 -25.08333,-8.37425c-23.19133,0 -41.9895,18.79817 -41.9895,41.9895c0,2.44742 0.25442,4.83392 0.65575,7.16667h66.41708z" fill="url(#color-3_dBsPW6uRLg1C_gr3)" opacity="0.3"></path><circle cx="38" cy="38" transform="scale(3.58333,3.58333)" r="10" fill="url(#color-4_dBsPW6uRLg1C_gr4)"></circle><path d="M137.95833,154.08333h-3.58333c-0.989,0 -1.79167,-0.80267 -1.79167,-1.79167v-32.25c0,-0.989 0.80267,-1.79167 1.79167,-1.79167h3.58333c0.989,0 1.79167,0.80267 1.79167,1.79167v32.25c0,0.989 -0.80267,1.79167 -1.79167,1.79167z" fill="#ffffff"></path><path d="M118.25,137.95833v-3.58333c0,-0.989 0.80267,-1.79167 1.79167,-1.79167h32.25c0.989,0 1.79167,0.80267 1.79167,1.79167v3.58333c0,0.989 -0.80267,1.79167 -1.79167,1.79167h-32.25c-0.989,0 -1.79167,-0.80267 -1.79167,-1.79167z" fill="#ffffff"></path></g></g></svg>