<svg xmlns="http://www.w3.org/2000/svg" x="0px" y="0px"
width="16" height="16"
viewBox="0 0 172 172"
style=" fill:#000000;"><g fill="none" fill-rule="nonzero" stroke="none" stroke-width="1" stroke-linecap="butt" stroke-linejoin="miter" stroke-miterlimit="10" stroke-dasharray="" stroke-dashoffset="0" font-family="none" font-weight="none" font-size="none" text-anchor="none" style="mix-blend-mode: normal"><path d="M0,172v-172h172v172z" fill="none"></path><g><path d="M76.7335,144.351l-1.0664,-0.1849c-3.2852,-0.5805 -6.579,-1.462 -9.7868,-2.6316l-1.0148,-0.3655l-17.3075,11.4251l1.2384,-20.6572l-0.8213,-0.6966c-2.5972,-2.1844 -5.0181,-4.6096 -7.2068,-7.2068l-0.6966,-0.8256l-20.6572,1.2384l11.4251,-17.3032l-0.3741,-1.0191c-1.1653,-3.2164 -2.0511,-6.5059 -2.6273,-9.7868l-0.1892,-1.0664l-18.5416,-9.2708l18.5416,-9.2708l0.1892,-1.0664c0.5805,-3.2809 1.4663,-6.5747 2.6273,-9.7911l0.3698,-1.0148l-11.4251,-17.3032l20.6615,1.2384l0.6966,-0.8256c2.1801,-2.5929 4.601,-5.0181 7.2025,-7.2025l0.8213,-0.6966l-1.2384,-20.6572l17.3075,11.4251l1.0105,-0.3655c3.2207,-1.1653 6.5188,-2.0554 9.7911,-2.6316l1.0664,-0.1849l9.2708,-18.5459l9.2665,18.5416l1.0664,0.1849c3.2766,0.5762 6.5704,1.462 9.7911,2.6316l1.0105,0.3655l17.3075,-11.4251l-1.2384,20.6572l0.8213,0.6966c2.5972,2.1887 5.0224,4.6096 7.2025,7.2025l0.6966,0.8256l20.6615,-1.2384l-11.4251,17.3032l0.3698,1.0148c1.1653,3.2164 2.0511,6.5102 2.6273,9.7911l0.1892,1.0664l18.5459,9.2751l-18.5416,9.2708l-0.1892,1.0664c-0.5805,3.2809 -1.4663,6.5747 -2.6273,9.7868l-0.3698,1.0148l11.4251,17.3032l-20.6572,-1.2384l-0.6966,0.8256c-2.1887,2.5972 -4.6096,5.0224 -7.2068,7.2068l-0.8213,0.6966l1.2384,20.6572l-17.3075,-11.4251l-1.0148,0.3655c-3.2078,1.1653 -6.5059,2.0511 -9.7868,2.6316l-1.0664,0.1849l-9.2708,18.5459z" fill="#ffeea3"></path><path d="M86,13.9148l6.8628,13.7256l0.9675,1.935l2.1285,0.3784c3.1648,0.559 6.3382,1.4104 9.4299,2.5327l2.0339,0.7353l1.8017,-1.1911l12.814,-8.4624l-0.9159,15.2865l-0.129,2.1586l1.6512,1.3932c2.5026,2.107 4.8375,4.4419 6.9445,6.9445l1.3932,1.6512l2.1543,-0.129l15.2865,-0.9159l-8.4624,12.814l-1.1911,1.8017l0.7353,2.0339c1.1223,3.0917 1.9737,6.2651 2.5327,9.4299l0.3741,2.1285l1.935,0.9675l13.7385,6.8671l-13.7256,6.8628l-1.935,0.9675l-0.3741,2.1285c-0.559,3.1648 -1.4104,6.3382 -2.5327,9.4299l-0.7353,2.0296l1.1911,1.8017l8.4624,12.814l-15.2865,-0.9159l-2.1586,-0.129l-1.3932,1.6512c-2.1027,2.5026 -4.4419,4.8375 -6.9445,6.9445l-1.6512,1.3932l0.129,2.1543l0.9159,15.2865l-12.814,-8.4624l-1.8017,-1.1911l-2.0339,0.7353c-3.0917,1.1223 -6.2651,1.9737 -9.4299,2.5327l-2.1285,0.3741l-0.9675,1.935l-6.8714,13.7428l-6.8628,-13.7256l-0.9675,-1.935l-2.1285,-0.3741c-3.1648,-0.559 -6.3382,-1.4104 -9.4299,-2.5327l-2.0339,-0.7353l-1.8017,1.1911l-12.814,8.4624l0.9159,-15.2865l0.129,-2.1543l-1.6512,-1.3932c-2.5026,-2.107 -4.8418,-4.4419 -6.9445,-6.9445l-1.3932,-1.6512l-2.1586,0.129l-15.2865,0.9159l8.4624,-12.814l1.1911,-1.8017l-0.7396,-2.0425c-1.1223,-3.0917 -1.9737,-6.2651 -2.5327,-9.4299l-0.3741,-2.1285l-1.935,-0.9675l-13.7299,-6.8671l13.7256,-6.8628l1.935,-0.9675l0.3741,-2.1285c0.559,-3.1648 1.4104,-6.3382 2.5327,-9.4299l0.7353,-2.0339l-1.1825,-1.806l-8.4624,-12.814l15.2865,0.9159l2.1543,0.129l1.3932,-1.6512c2.107,-2.5026 4.4419,-4.8375 6.9445,-6.9445l1.6512,-1.3932l-0.129,-2.1586l-0.9159,-15.2865l12.814,8.4624l1.8017,1.1911l2.0339,-0.7353c3.0917,-1.1223 6.2651,-1.9737 9.4299,-2.5327l2.1285,-0.3784l0.9675,-1.935l6.8671,-13.7256M86,4.3l-10.7113,21.4183c-3.5002,0.6192 -6.8843,1.5394 -10.148,2.7262l-19.9907,-13.201l1.4319,23.8736c-2.6961,2.2704 -5.1944,4.7687 -7.4648,7.4648l-23.8693,-1.4319l13.201,19.9907c-1.1868,3.268 -2.107,6.6521 -2.7262,10.148l-21.4226,10.7113l21.4183,10.7113c0.6192,3.5002 1.5394,6.8843 2.7262,10.148l-13.1967,19.9907l23.8736,-1.4319c2.2704,2.6961 4.7687,5.1944 7.4648,7.4648l-1.4362,23.8693l19.9907,-13.201c3.268,1.1868 6.6521,2.107 10.148,2.7262l10.7113,21.4226l10.7113,-21.4183c3.5002,-0.6192 6.8843,-1.5394 10.148,-2.7262l19.9907,13.201l-1.4319,-23.8736c2.6961,-2.2704 5.1944,-4.7687 7.4648,-7.4648l23.8736,1.4319l-13.201,-19.9907c1.1868,-3.268 2.107,-6.6521 2.7262,-10.148l21.4183,-10.7113l-21.4183,-10.7113c-0.6192,-3.5002 -1.5394,-6.8843 -2.7262,-10.148l13.201,-19.9907l-23.8736,1.4319c-2.2704,-2.6961 -4.7687,-5.1944 -7.4648,-7.4648l1.4319,-23.8736l-19.9907,13.201c-3.268,-1.1825 -6.6521,-2.107 -10.148,-2.7262l-10.7113,-21.4183z" fill="#ba9b48"></path><path d="M86,43c-23.74824,0 -43,19.25176 -43,43c0,23.74824 19.25176,43 43,43c23.74824,0 43,-19.25176 43,-43c0,-23.74824 -19.25176,-43 -43,-43z" fill="#f5ce85"></path></g></g></svg>