<svg xmlns="http://www.w3.org/2000/svg" x="0px" y="0px"
width="16" height="16"
viewBox="0 0 172 172"
style=" fill:#000000;"><g fill="none" fill-rule="nonzero" stroke="none" stroke-width="1" stroke-linecap="butt" stroke-linejoin="miter" stroke-miterlimit="10" stroke-dasharray="" stroke-dashoffset="0" font-family="none" font-weight="none" font-size="none" text-anchor="none" style="mix-blend-mode: normal"><path d="M0,172v-172h172v172z" fill="none"></path><g><path d="M4.3,167.7h163.4l-21.4183,-10.7113c-0.6192,-3.5002 -1.5394,-6.8843 -2.7262,-10.148l13.201,-19.9907l-23.8736,1.4319c-2.2704,-2.6961 -4.7687,-5.1944 -7.4648,-7.4648l1.4319,-23.8736l-19.9907,13.201c-3.268,-1.1868 -6.6521,-2.107 -10.148,-2.7262l-10.7113,-21.4183l-10.7113,21.4183c-3.5002,0.6192 -6.8843,1.5394 -10.148,2.7262l-19.9907,-13.201l1.4319,23.8736c-2.6961,2.2704 -5.1944,4.7687 -7.4648,7.4648l-23.8693,-1.4319l13.201,19.9907c-1.1868,3.268 -2.107,6.6521 -2.7262,10.148z" fill="#ffeea3"></path><path d="M75.25,70.95v-34.4h-14.6114l25.3614,-28.9863l25.3614,28.9863h-14.6114v34.4z" fill="#8bb7f0"></path><path d="M86,10.8317l20.6228,23.5683h-7.7228h-4.3v4.3v30.1h-17.2v-30.1v-4.3h-4.3h-7.7228l20.6228,-23.5683M86,4.3l-30.1,34.4h17.2v34.4c11.825,0 17.5569,0 25.8,0v-34.4h17.2l-30.1,-34.4z" fill="#4e7ab5"></path><path d="M86,124.7c-23.7489,0 -43,19.2511 -43,43h86c0,-23.7489 -19.2511,-43 -43,-43z" fill="#f5ce85"></path><path d="M4.3,167.7h9.6148l13.7256,-6.8628l1.935,-0.9675l0.3784,-2.1285c0.559,-3.1648 1.4104,-6.3382 2.5327,-9.4299l0.7353,-2.0296l-1.1868,-1.8103l-8.4624,-12.814l15.2865,0.9159l2.1543,0.129l1.3889,-1.6512c2.107,-2.5026 4.4419,-4.8375 6.9445,-6.9445l1.6512,-1.3889l-0.129,-2.1586l-0.9159,-15.2865l12.814,8.4624l1.8017,1.1911l2.0296,-0.7353c3.0917,-1.1223 6.2651,-1.9737 9.4299,-2.5327l2.1285,-0.3784l0.9675,-1.935l6.8757,-13.7299l6.8628,13.7256l0.9675,1.935l2.1285,0.3784c3.1648,0.559 6.3382,1.4104 9.4299,2.5327l2.0296,0.7353l1.8017,-1.1911l12.814,-8.4624l-0.9159,15.2865l-0.129,2.1586l1.6512,1.3889c2.5026,2.107 4.8375,4.4419 6.9445,6.9445l1.3889,1.6512l2.1543,-0.129l15.2865,-0.9159l-8.4624,12.814l-1.1911,1.8017l0.7353,2.0296c1.1223,3.0917 1.9737,6.2651 2.5327,9.4299l0.3784,2.1285l1.935,0.9675l13.7428,6.8757h9.6148l-21.4183,-10.7113c-0.6192,-3.5002 -1.5394,-6.8843 -2.7262,-10.148l13.201,-19.9907l-23.8736,1.4319c-2.2704,-2.6961 -4.7687,-5.1944 -7.4648,-7.4648l1.4319,-23.8736l-19.9907,13.201c-3.268,-1.1868 -6.6521,-2.107 -10.148,-2.7262l-10.7113,-21.4183l-10.7113,21.4183c-3.5002,0.6192 -6.8843,1.5394 -10.148,2.7262l-19.9907,-13.201l1.4319,23.8736c-2.6961,2.2704 -5.1944,4.7687 -7.4648,7.4648l-23.8693,-1.4319l13.201,19.9907c-1.1868,3.268 -2.107,6.6521 -2.7262,10.148z" fill="#ba9b48"></path></g></g></svg>