<svg xmlns="http://www.w3.org/2000/svg" x="0px" y="0px"
width="64" height="64"
viewBox="0 0 172 172"
style=" fill:#000000;"><g fill="none" fill-rule="nonzero" stroke="none" stroke-width="1" stroke-linecap="butt" stroke-linejoin="miter" stroke-miterlimit="10" stroke-dasharray="" stroke-dashoffset="0" font-family="none" font-weight="none" font-size="none" text-anchor="none" style="mix-blend-mode: normal"><path d="M0,172v-172h172v172z" fill="none"></path><g><path d="M37.75938,157.89063v-23.1125c0,-4.43437 3.62813,-7.92812 8.0625,-7.92812h27.68125c4.43438,0 8.0625,3.62813 8.0625,7.92812v23.1125M59.6625,102.25938v0c3.35938,0 6.18125,2.6875 6.18125,6.18125v18.275h-12.3625v-18.275c0,-3.35937 2.82188,-6.18125 6.18125,-6.18125z" fill="#ffffff"></path><path d="M65.84375,130.74687h-12.3625c-2.28438,0 -4.03125,-1.74687 -4.03125,-4.03125v-18.275c0,-5.64375 4.56875,-10.2125 10.2125,-10.2125c5.64375,0 10.2125,4.56875 10.2125,10.2125v18.275c0,2.28437 -1.88125,4.03125 -4.03125,4.03125zM57.5125,122.68438h4.3v-14.24375c0,-1.20937 -0.94063,-2.15 -2.15,-2.15c-1.20938,0 -2.15,0.94063 -2.15,2.15z" fill="#454b54"></path><path d="M59.6625,106.29063c-2.28438,0 -4.03125,-1.74687 -4.03125,-4.03125v-41.25312c0,-2.28438 1.74687,-4.03125 4.03125,-4.03125c2.28437,0 4.03125,1.74687 4.03125,4.03125v41.25312c0,2.28438 -1.88125,4.03125 -4.03125,4.03125zM81.56563,161.92188c-2.28437,0 -4.03125,-1.74687 -4.03125,-4.03125v-23.1125c0,-2.15 -1.74687,-3.89687 -4.03125,-3.89687h-27.68125c-2.28437,0 -4.03125,1.74687 -4.03125,3.89687v23.1125c0,2.28438 -1.74687,4.03125 -4.03125,4.03125c-2.28437,0 -4.03125,-1.74687 -4.03125,-4.03125v-23.1125c0,-6.58437 5.375,-11.95937 12.09375,-11.95937h27.68125c6.71875,0 12.09375,5.375 12.09375,11.95937v23.1125c0,2.28438 -1.88125,4.03125 -4.03125,4.03125z" fill="#454b54"></path><g fill="#454b54"><path d="M123.35625,59.93125c-2.28438,0 -4.03125,-1.74687 -4.03125,-4.03125v-0.80625c0,-2.28438 1.74687,-4.03125 4.03125,-4.03125v0c2.28437,0 4.03125,1.74687 4.03125,4.03125v0.80625c0,2.15 -1.88125,4.03125 -4.03125,4.03125zM59.6625,49.04688c-2.28438,0 -4.03125,-1.74687 -4.03125,-4.03125c0,-0.80625 0,-1.47812 0.13437,-2.28437c0.13437,-2.28438 2.01563,-3.89688 4.3,-3.7625c2.28438,0.13437 3.89687,2.01563 3.7625,4.3c0,0.5375 0,1.20937 0,1.74687c-0.13437,2.28438 -2.01562,4.03125 -4.16562,4.03125zM122.68438,43c-1.88125,0 -3.49375,-1.34375 -3.89688,-3.225c-0.13437,-0.5375 -0.26875,-1.075 -0.40313,-1.74687c-0.5375,-2.15 0.67188,-4.3 2.82187,-4.97188c2.15,-0.5375 4.3,0.67188 4.97188,2.82188c0.13437,0.67188 0.40312,1.47812 0.5375,2.28437c0.40312,2.15 -0.94063,4.3 -3.09063,4.70313c-0.40313,0 -0.67187,0.13437 -0.94062,0.13437zM64.76875,31.98125c-0.80625,0 -1.6125,-0.26875 -2.28437,-0.67187c-1.88125,-1.20937 -2.28438,-3.7625 -1.075,-5.64375c0.40312,-0.67187 0.80625,-1.20937 1.34375,-1.88125c1.34375,-1.74688 3.89688,-2.15 5.64375,-0.67187c1.74687,1.34375 2.15,3.89687 0.67188,5.64375c-0.40313,0.40313 -0.67187,0.94063 -1.075,1.47813c-0.5375,1.075 -1.88125,1.74687 -3.225,1.74687zM114.21875,27.27813c-1.075,0 -2.01562,-0.40312 -2.82187,-1.20937c-0.40313,-0.40312 -0.80625,-0.80625 -1.34375,-1.20937c-1.6125,-1.47813 -1.88125,-4.03125 -0.40313,-5.64375c1.47812,-1.6125 4.03125,-1.88125 5.64375,-0.40313c0.5375,0.5375 1.075,1.075 1.6125,1.6125c1.6125,1.6125 1.6125,4.16563 0,5.64375c-0.67188,0.80625 -1.74688,1.20937 -2.6875,1.20937zM78.60938,20.55938c-1.6125,0 -3.09063,-0.94062 -3.7625,-2.41875c-0.80625,-2.01562 0.13438,-4.43438 2.15,-5.24062c0.67188,-0.26875 1.34375,-0.5375 2.15,-0.80625c2.15,-0.67187 4.43437,0.40313 5.10625,2.55312c0.67188,2.15 -0.40312,4.43438 -2.55312,5.10625c-0.5375,0.13437 -1.075,0.40312 -1.6125,0.67188c-0.40313,0 -0.94063,0.13437 -1.47813,0.13437zM98.3625,18.8125c-0.26875,0 -0.5375,0 -0.80625,-0.13437c-0.5375,-0.13438 -1.20938,-0.26875 -1.74687,-0.26875c-2.15,-0.26875 -3.7625,-2.28437 -3.49375,-4.56875c0.26875,-2.15 2.28437,-3.7625 4.56875,-3.49375c0.80625,0.13438 1.47812,0.26875 2.28437,0.40313c2.15,0.40313 3.62813,2.55313 3.09063,4.70313c-0.26875,2.01562 -2.01563,3.35937 -3.89688,3.35937z"></path></g><g fill="#98bed8"><path d="M114.89063,102.52813c4.70313,4.70313 12.3625,4.70313 17.06563,0c4.70313,-4.70312 3.49375,-11.42187 0,-16.93125c-5.375,-8.33125 -8.46563,-13.16875 -8.46563,-13.16875c0,0 -3.62813,5.64375 -8.46563,13.16875c-4.56875,6.71875 -4.8375,12.22813 -0.13438,16.93125z"></path></g></g></g></svg>