<svg height="100%" width="100%" id="bg-svg" viewBox="0 0 1440 400" xmlns="http://www.w3.org/2000/svg" class="transition duration-300 ease-in-out delay-150"><defs><linearGradient id="gradient"><stop offset="5%" stop-color="#002bdc88"></stop><stop offset="95%" stop-color="#32ded488"></stop></linearGradient></defs><path d="M 0,400 C 0,400 0,133 0,133 C 103.61722488038276,123.4401913875598 207.23444976076553,113.88038277511961 292,126 C 376.76555023923447,138.1196172248804 442.67942583732054,171.91866028708134 532,176 C 621.3205741626795,180.08133971291866 734.0478468899522,154.444976076555 837,145 C 939.9521531100478,135.555023923445 1033.1291866028707,142.30143540669857 1132,143 C 1230.8708133971293,143.69856459330143 1335.4354066985647,138.3492822966507 1440,133 C 1440,133 1440,400 1440,400 Z" stroke="none" stroke-width="0" fill="url(#gradient)" class="transition-all duration-300 ease-in-out delay-150"></path><defs><linearGradient id="gradient"><stop offset="5%" stop-color="#002bdcff"></stop><stop offset="95%" stop-color="#32ded4ff"></stop></linearGradient></defs><path d="M 0,400 C 0,400 0,266 0,266 C 97.60765550239233,256.41148325358853 195.21531100478467,246.82296650717703 297,248 C 398.78468899521533,249.17703349282297 504.7464114832536,261.11961722488036 607,266 C 709.2535885167464,270.88038277511964 807.7990430622011,268.69856459330146 903,263 C 998.2009569377989,257.30143540669854 1090.0574162679425,248.08612440191385 1179,248 C 1267.9425837320575,247.91387559808615 1353.9712918660289,256.9569377990431 1440,266 C 1440,266 1440,400 1440,400 Z" stroke="none" stroke-width="0" fill="url(#gradient)" class="transition-all duration-300 ease-in-out delay-150"></path></svg>